Coordinates
version=1
nRows=24
nColumns=24
inDegrees=yes

Units are S.I. units (second, meters, Newtons, ...)
Angles are in degrees.

endheader
time	pelvis_tilt	pelvis_list	pelvis_rotation	pelvis_tx	pelvis_ty	pelvis_tz	hip_flexion_r	hip_adduction_r	hip_rotation_r	knee_angle_r	ankle_angle_r	subtalar_angle_r	mtp_angle_r	hip_flexion_l	hip_adduction_l	hip_rotation_l	knee_angle_l	ankle_angle_l	subtalar_angle_l	mtp_angle_l	lumbar_extension	lumbar_bending	lumbar_rotation
      0.45400000	     -1.82244059	      4.12595363	      3.06993613	     -0.78659132	      0.98056450	      0.29229461	     29.06814947	     -2.96173608	     -4.12218855	    -13.39098571	      7.06588287	     -4.51376137	      0.43412821	    -14.33521658	      8.11839923	      3.13886121	     -4.85234701	     10.51515402	     -3.19322645	      0.18569255	     -2.05306680	     -2.29938293	     -1.84679062
      0.45816667	     -1.88839814	      4.15575313	      3.10121302	     -0.78050889	      0.97982159	      0.29248853	     29.00699003	     -2.91871300	     -4.16944027	    -13.37332003	      6.93044902	     -4.43360984	      0.69521418	    -14.19227231	      8.10695911	      2.89234255	     -5.73374116	     10.71978389	     -2.74901643	      0.16948243	     -1.92067316	     -2.33000808	     -1.86937813
      0.46233333	     -1.94281172	      4.16787052	      3.14326234	     -0.77436638	      0.97915929	      0.29267531	     28.90413471	     -2.85974181	     -4.19929022	    -13.36659504	      6.71499798	     -4.38369676	      0.93654588	    -14.03671260	      8.07090327	      2.66622820	     -6.66502567	     10.89551893	     -2.30260416	      0.19150698	     -1.78345096	     -2.35071801	     -1.93037014
      0.46650000	     -1.93245710	      4.14217415	      3.17354338	     -0.76817536	      0.97862681	      0.29289152	     28.71758252	     -2.75309176	     -4.21296952	    -13.39470887	      6.43022529	     -4.52081297	      1.84393190	    -13.92232970	      7.98619128	      2.38560782	     -7.64219058	     11.08970584	     -1.79415608	      0.37813961	     -1.73099716	     -2.29966713	     -1.92163537
      0.47066667	     -2.02203041	      4.17203958	      3.18312133	     -0.76201004	      0.97793704	      0.29310820	     28.69158882	     -2.70587185	     -4.19215370	    -13.57659119	      6.17810172	     -4.45001822	      2.08812907	    -13.67162892	      7.97917927	      2.15453282	     -8.67576077	     11.19282073	     -1.45723303	      0.47532278	     -1.55009019	     -2.33475409	     -2.00533179
      0.47483333	     -2.02590342	      4.12727101	      3.20487443	     -0.75575004	      0.97747115	      0.29335725	     28.49848913	     -2.57265136	     -4.13153230	    -13.65992897	      5.73952254	     -4.68018900	      2.92222555	    -13.48011628	      7.87077797	      1.86665888	     -9.76325074	     11.25629352	     -1.00472358	      0.92240387	     -1.46888025	     -2.27017756	     -1.99488978
      0.47900000	     -2.12746139	      4.14446754	      3.22401197	     -0.74955328	      0.97685070	      0.29357490	     28.47580891	     -2.51843677	     -4.07638883	    -13.91507476	      5.40908058	     -4.68149468	      3.10250833	    -13.15562839	      7.84712130	      1.69477859	    -10.90706142	     11.26280906	     -0.74274127	      1.05772339	     -1.27068825	     -2.29480311	     -2.04024742
      0.48316667	     -2.16519742	      4.11580443	      3.21364313	     -0.74328964	      0.97635859	      0.29385880	     28.36902812	     -2.39907030	     -3.98555028	    -14.17470096	      4.99379549	     -4.88209996	      3.34459096	    -12.86184335	      7.76194408	      1.39687906	    -12.10726253	     11.25620953	     -0.35318467	      1.28803799	     -1.14732462	     -2.24574927	     -2.05374272
      0.48733333	     -2.21291634	      4.07835525	      3.21021118	     -0.73702351	      0.97590171	      0.29414856	     28.26258389	     -2.27174803	     -3.85801246	    -14.44347741	      4.53049238	     -5.14396666	      3.60768017	    -12.53420842	      7.66743152	      1.17037971	    -13.34820372	     11.16377521	     -0.04856495	      1.58929835	     -1.00926018	     -2.19510421	     -2.04605720
      0.49150000	     -2.25557311	      4.03588420	      3.19175437	     -0.73074072	      0.97549782	      0.29445613	     28.14192483	     -2.13074903	     -3.66999004	    -14.70891791	      3.95840266	     -5.62475215	      6.14465839	    -12.19767484	      7.57442855	      0.99122447	    -14.58807804	     10.86684009	      0.03187293	      4.98157801	     -0.87254102	     -2.13609661	     -1.96535784
      0.49566667	     -2.29847576	      3.99410964	      3.20160733	     -0.72446232	      0.97511580	      0.29471257	     28.04898917	     -2.02730650	     -3.62023556	    -15.05850401	      3.45833905	     -5.65009789	      6.16554704	    -11.79827831	      7.47029152	      0.80984596	    -15.95336679	     10.66222870	      0.28433754	      5.05386885	     -0.73545009	     -2.07969808	     -1.97881492
      0.49983333	     -2.34638533	      3.90818326	      3.17427148	     -0.71819145	      0.97473842	      0.29508063	     27.96545610	     -1.84338515	     -3.43376419	    -15.43453661	      3.03198106	     -6.09350923	      6.22657125	    -11.33885551	      7.30914645	      0.52694169	    -17.40317829	     10.37824219	      0.61703165	      5.31103988	     -0.59711626	     -1.96215065	     -1.94707228
      0.50400000	     -2.38756265	      3.84478873	      3.14397654	     -0.71192315	      0.97441120	      0.29537983	     27.90542867	     -1.70819741	     -3.34010707	    -15.87464049	      2.49666926	     -6.23859087	      6.24127263	    -10.88426182	      7.19472174	      0.38840090	    -18.83504168	      9.94753441	      0.65981726	      5.42269376	     -0.46910209	     -1.86148813	     -1.89196737
      0.50816667	     -2.40644812	      3.70917359	      3.09681699	     -0.70569124	      0.97415032	      0.29586883	     27.75786968	     -1.44222839	     -2.99755689	    -16.19256322	      2.02981699	     -6.98973734	      6.35066870	    -10.34962018	      6.95806127	      0.04697526	    -20.44669081	      9.58186557	      1.01492194	      6.27051468	     -0.35956870	     -1.70632539	     -1.82138949
      0.51233333	     -2.47110435	      3.57932047	      3.05728380	     -0.69949385	      0.97383313	      0.29630463	     27.71115653	     -1.20995625	     -2.75287678	    -16.62361049	      1.61898577	     -7.51800434	      6.47690140	     -9.72811861	      6.73400201	     -0.23094058	    -22.10776734	      9.07182698	      1.24444628	      7.75333094	     -0.20344817	     -1.54712991	     -1.75475108
      0.51650000	     -2.53436041	      3.49480121	      3.05120758	     -0.69333704	      0.97352360	      0.29661535	     27.72069919	     -1.07610741	     -2.68292972	    -17.18805036	      1.32759294	     -7.70189229	      6.63180526	     -9.08346149	      6.57529279	     -0.34946934	    -23.78596902	      8.38449968	      1.22654291	     11.87101737	     -0.05299146	     -1.44138558	     -1.65447507
      0.52066667	     -2.57678524	      3.36053819	      3.01769808	     -0.68718421	      0.97327580	      0.29701884	     27.68575673	     -0.86747857	     -2.53968357	    -17.69914436	      1.01290796	     -7.88722190	      6.62281559	     -8.40475940	      6.34336111	     -0.56390703	    -25.54939882	      7.68781488	      1.38419101	     11.92649505	      0.07982995	     -1.28297085	     -1.58476255
      0.52483333	     -2.61674931	      3.19628307	      2.97829521	     -0.68108304	      0.97302141	      0.29745941	     27.66145319	     -0.62015436	     -2.36634352	    -18.24265055	      0.79134608	     -8.25193208	      6.60237609	     -7.66906929	      6.06622929	     -0.80845134	    -27.39954202	      6.95593192	      1.54942502	     12.04759622	      0.20178702	     -1.08424429	     -1.49193315
      0.52900000	     -2.60797871	      2.98876802	      2.93130519	     -0.67501660	      0.97284837	      0.29795026	     27.58524834	     -0.31489803	     -2.16496675	    -18.79336237	      0.62472218	     -8.87143143	      6.53466884	     -6.95280997	      5.72772763	     -1.05174233	    -29.28607188	      6.16405918	      1.75202902	     12.40202837	      0.24793827	     -0.83230528	     -1.38147351
      0.53316667	     -2.62209633	      2.77791541	      2.87274112	     -0.66898904	      0.97262847	      0.29842012	     27.55964685	     -0.02143312	     -2.02878562	    -19.38727889	      0.49511399	     -9.10193190	      6.48054680	     -6.16361010	      5.38588885	     -1.30228738	    -31.23310555	      5.30459672	      1.85021703	     12.66744424	      0.33179794	     -0.57495356	     -1.28382017
      0.53733333	     -2.61167705	      2.53302014	      2.82483332	     -0.66299197	      0.97247371	      0.29890396	     27.49025339	      0.31023217	     -1.88223104	    -19.95225010	      0.45889951	     -9.42884432	      6.41160950	     -5.36512728	      4.99288032	     -1.53732163	    -33.21449718	      4.34452129	      1.95257889	     12.96774243	      0.38377214	     -0.27978704	     -1.17527833
      0.54150000	     -2.60266017	      2.27159269	      2.77843570	     -0.65704694	      0.97232030	      0.29938885	     27.42839811	      0.65682475	     -1.74941213	    -20.53022178	      0.47889499	     -9.78505583	      6.30822381	     -4.53239793	      4.57731953	     -1.74706722	    -35.22355014	      3.32342347	      2.03182595	     13.36352665	      0.42947759	      0.03286222	     -1.06334017
      0.54566667	     -2.55182899	      1.98461785	      2.75582447	     -0.65112493	      0.97226586	      0.29987132	     27.29242273	      1.02473978	     -1.63747778	    -21.05605648	      0.55373992	    -10.19714974	      6.11189557	     -3.71559134	      4.11814694	     -1.92482373	    -37.24401860	      2.19207272	      2.11805876	     14.01662312	      0.42608253	      0.36149771	     -0.93374243
      0.54983333	     -2.47217815	      1.68057604	      2.67507225	     -0.64523053	      0.97220702	      0.30039587	     27.14618296	      1.42523665	     -1.53007301	    -21.61651791	      0.74222002	    -10.26510759	      4.54155758	     -2.91619800	      3.63368323	     -2.17293418	    -39.25531502	      0.99352688	      2.03243814	     18.50076873	      0.38219113	      0.73184232	     -0.84190063
